<mxfile host="drawio-plugin" modified="2024-03-28T08:54:17.309Z" agent="5.0 (Macintosh; Intel Mac OS X 10_15_7) AppleWebKit/537.36 (KHTML, like Gecko) Chrome/98.0.4758.102 Safari/537.36" etag="PbKPf7CPOkR9seOBNvmR" version="20.5.3" type="embed"><diagram id="C5RBs43oDa-KdzZeNtuy" name="Page-1"><mxGraphModel dx="598" dy="626" grid="1" gridSize="10" guides="1" tooltips="1" connect="1" arrows="1" fold="1" page="1" pageScale="1" pageWidth="827" pageHeight="1169" math="0" shadow="0"><root><mxCell id="WIyWlLk6GJQsqaUBKTNV-0"/><mxCell id="WIyWlLk6GJQsqaUBKTNV-1" parent="WIyWlLk6GJQsqaUBKTNV-0"/><mxCell id="GyApxkFS5PEAuPatg3P1-0" value="abstract&amp;nbsp;CaffeineBeverage" style="swimlane;fontStyle=0;childLayout=stackLayout;horizontal=1;startSize=26;fillColor=none;horizontalStack=0;resizeParent=1;resizeParentMax=0;resizeLast=0;collapsible=1;marginBottom=0;whiteSpace=wrap;html=1;" parent="WIyWlLk6GJQsqaUBKTNV-1" vertex="1"><mxGeometry x="310" y="60" width="170" height="148" as="geometry"/></mxCell><mxCell id="GyApxkFS5PEAuPatg3P1-1" value="prepareRecipe() {...}&lt;div&gt;boilWater() {...}&lt;br&gt;&lt;/div&gt;&lt;div&gt;pourCup() {...}&lt;br&gt;&lt;/div&gt;" style="text;strokeColor=none;fillColor=none;align=left;verticalAlign=top;spacingLeft=4;spacingRight=4;overflow=hidden;rotatable=0;points=[[0,0.5],[1,0.5]];portConstraint=eastwest;whiteSpace=wrap;html=1;" parent="GyApxkFS5PEAuPatg3P1-0" vertex="1"><mxGeometry y="26" width="170" height="64" as="geometry"/></mxCell><mxCell id="GyApxkFS5PEAuPatg3P1-2" value="abstract&amp;nbsp;brew()" style="text;strokeColor=none;fillColor=none;align=left;verticalAlign=top;spacingLeft=4;spacingRight=4;overflow=hidden;rotatable=0;points=[[0,0.5],[1,0.5]];portConstraint=eastwest;whiteSpace=wrap;html=1;" parent="GyApxkFS5PEAuPatg3P1-0" vertex="1"><mxGeometry y="90" width="170" height="26" as="geometry"/></mxCell><mxCell id="GyApxkFS5PEAuPatg3P1-3" value="abstract&amp;nbsp;addCondiments()" style="text;strokeColor=none;fillColor=none;align=left;verticalAlign=top;spacingLeft=4;spacingRight=4;overflow=hidden;rotatable=0;points=[[0,0.5],[1,0.5]];portConstraint=eastwest;whiteSpace=wrap;html=1;" parent="GyApxkFS5PEAuPatg3P1-0" vertex="1"><mxGeometry y="116" width="170" height="32" as="geometry"/></mxCell><mxCell id="GyApxkFS5PEAuPatg3P1-4" value="Tea" style="swimlane;fontStyle=0;childLayout=stackLayout;horizontal=1;startSize=26;fillColor=none;horizontalStack=0;resizeParent=1;resizeParentMax=0;resizeLast=0;collapsible=1;marginBottom=0;whiteSpace=wrap;html=1;" parent="WIyWlLk6GJQsqaUBKTNV-1" vertex="1"><mxGeometry x="150" y="320" width="140" height="78" as="geometry"/></mxCell><mxCell id="GyApxkFS5PEAuPatg3P1-5" value="brew() {...}" style="text;strokeColor=none;fillColor=none;align=left;verticalAlign=top;spacingLeft=4;spacingRight=4;overflow=hidden;rotatable=0;points=[[0,0.5],[1,0.5]];portConstraint=eastwest;whiteSpace=wrap;html=1;" parent="GyApxkFS5PEAuPatg3P1-4" vertex="1"><mxGeometry y="26" width="140" height="26" as="geometry"/></mxCell><mxCell id="GyApxkFS5PEAuPatg3P1-6" value="addCondiments() {...}" style="text;strokeColor=none;fillColor=none;align=left;verticalAlign=top;spacingLeft=4;spacingRight=4;overflow=hidden;rotatable=0;points=[[0,0.5],[1,0.5]];portConstraint=eastwest;whiteSpace=wrap;html=1;" parent="GyApxkFS5PEAuPatg3P1-4" vertex="1"><mxGeometry y="52" width="140" height="26" as="geometry"/></mxCell><mxCell id="GyApxkFS5PEAuPatg3P1-8" value="Coffee" style="swimlane;fontStyle=0;childLayout=stackLayout;horizontal=1;startSize=26;fillColor=none;horizontalStack=0;resizeParent=1;resizeParentMax=0;resizeLast=0;collapsible=1;marginBottom=0;whiteSpace=wrap;html=1;" parent="WIyWlLk6GJQsqaUBKTNV-1" vertex="1"><mxGeometry x="450" y="320" width="140" height="78" as="geometry"/></mxCell><mxCell id="GyApxkFS5PEAuPatg3P1-9" value="brew() {...}" style="text;strokeColor=none;fillColor=none;align=left;verticalAlign=top;spacingLeft=4;spacingRight=4;overflow=hidden;rotatable=0;points=[[0,0.5],[1,0.5]];portConstraint=eastwest;whiteSpace=wrap;html=1;" parent="GyApxkFS5PEAuPatg3P1-8" vertex="1"><mxGeometry y="26" width="140" height="26" as="geometry"/></mxCell><mxCell id="GyApxkFS5PEAuPatg3P1-10" value="addCondiments() {...}" style="text;strokeColor=none;fillColor=none;align=left;verticalAlign=top;spacingLeft=4;spacingRight=4;overflow=hidden;rotatable=0;points=[[0,0.5],[1,0.5]];portConstraint=eastwest;whiteSpace=wrap;html=1;" parent="GyApxkFS5PEAuPatg3P1-8" vertex="1"><mxGeometry y="52" width="140" height="26" as="geometry"/></mxCell><mxCell id="GyApxkFS5PEAuPatg3P1-11" value="Extends" style="endArrow=block;endSize=16;endFill=0;html=1;rounded=0;exitX=0.429;exitY=0;exitDx=0;exitDy=0;exitPerimeter=0;entryX=0.165;entryY=1.063;entryDx=0;entryDy=0;entryPerimeter=0;" parent="WIyWlLk6GJQsqaUBKTNV-1" source="GyApxkFS5PEAuPatg3P1-4" target="GyApxkFS5PEAuPatg3P1-3" edge="1"><mxGeometry width="160" relative="1" as="geometry"><mxPoint x="200" y="270" as="sourcePoint"/><mxPoint x="360" y="270" as="targetPoint"/></mxGeometry></mxCell><mxCell id="GyApxkFS5PEAuPatg3P1-12" value="Extends" style="endArrow=block;endSize=16;endFill=0;html=1;rounded=0;exitX=0.5;exitY=0;exitDx=0;exitDy=0;entryX=0.812;entryY=1.031;entryDx=0;entryDy=0;entryPerimeter=0;" parent="WIyWlLk6GJQsqaUBKTNV-1" source="GyApxkFS5PEAuPatg3P1-8" target="GyApxkFS5PEAuPatg3P1-3" edge="1"><mxGeometry width="160" relative="1" as="geometry"><mxPoint x="220" y="330" as="sourcePoint"/><mxPoint x="348" y="220" as="targetPoint"/></mxGeometry></mxCell></root></mxGraphModel></diagram></mxfile>